<svg xmlns="http://www.w3.org/2000/svg" width="250" height="250" viewBox="0 0 250 250">
    <defs>
        <style>
            .a {
                fill: none;
            }
        </style>
    </defs>
    <path
    fill="#fff"
        d="M22.793,2A20.8,20.8,0,0,0,2,22.813V179.1a20.8,20.8,0,0,0,20.793,20.813H168.707A20.8,20.8,0,0,0,189.5,179.1V22.813A20.8,20.8,0,0,0,168.707,2Zm10.4,62.439H157.965a10.692,10.692,0,0,1,10.7,10.478v41.667A10.461,10.461,0,0,1,158.25,127H137.417l-.224,20.671L106.167,127H33.189a10.392,10.392,0,0,1-10.4-10.4V74.835A10.392,10.392,0,0,1,33.189,64.439ZM43.667,85.333v20.833H64.5V85.333Zm41.667,0v20.833h20.833V85.333Zm41.667,0v20.833h20.833V85.333Z"
        transform="translate(29.25 29.25)" />
    <rect class="a" width="250" height="250" />
</svg>