<svg xmlns="http://www.w3.org/2000/svg" width="250" height="250" viewBox="0 0 250 250">
    <defs>
        <style>
            .a {
                fill: none;
            }
        </style>
    </defs>
    <path
    fill="#fff"
        d="M97.822,3.988a7.187,7.187,0,0,0-5.107,2.157L42.667,56.194H21.833A20.828,20.828,0,0,0,1,77.027V97.86a20.828,20.828,0,0,0,20.833,20.833H42.667l50.049,50.049a7.144,7.144,0,0,0,5.107,2.157,7.283,7.283,0,0,0,7.345-7.3V11.292A7.283,7.283,0,0,0,97.822,3.988Zm58.8,21.362a10.418,10.418,0,0,0-7.263,17.9,62.326,62.326,0,0,1,0,88.379,10.417,10.417,0,1,0,14.731,14.731,83.473,83.473,0,0,0,0-117.84,10.418,10.418,0,0,0-7.467-3.174Zm-29.46,29.48A10.418,10.418,0,0,0,119.9,72.714a20.661,20.661,0,0,1,0,29.46,10.423,10.423,0,0,0,14.73,14.75,41.839,41.839,0,0,0,0-58.94A10.418,10.418,0,0,0,127.16,54.831Z"
        transform="translate(30.25 37.679)" />
    <rect class="a" width="250" height="250" />
</svg>