<svg xmlns="http://www.w3.org/2000/svg" width="250" height="250" viewBox="0 0 250 250">
    <defs>
        <style>
            .a {
                fill: none;
            }
        </style>
    </defs>
    <path
    fill="#fff"
        d="M86.6,3.988a6.28,6.28,0,0,0-4.462,1.884L38.405,49.6H20.2A18.2,18.2,0,0,0,2,67.8v18.2a18.2,18.2,0,0,0,18.2,18.2h18.2l43.729,43.729a6.242,6.242,0,0,0,4.462,1.884,6.364,6.364,0,0,0,6.417-6.382V10.37A6.364,6.364,0,0,0,86.6,3.988Zm33.632,36.423a9.1,9.1,0,0,0-6.346,15.625L134.75,76.9,113.881,97.774a9.1,9.1,0,1,0,12.871,12.871l20.868-20.87,20.869,20.869A9.1,9.1,0,1,0,181.36,97.772L160.49,76.9l20.869-20.869a9.1,9.1,0,1,0-12.87-12.87L147.62,64.035,126.751,43.166A9.1,9.1,0,0,0,120.227,40.411Z"
        transform="translate(29.25 48.095)" />
    <rect class="a" width="250" height="250" />
</svg>